<?xml version="1.0" encoding="utf-8"?>
<!-- Generator: Adobe Illustrator 26.0.2, SVG Export Plug-In . SVG Version: 6.00 Build 0)  -->
<svg version="1.1" id="Bold" xmlns="http://www.w3.org/2000/svg" xmlns:xlink="http://www.w3.org/1999/xlink" x="0px" y="0px"
	 viewBox="0 0 512 512" style="enable-background:new 0 0 512 512;" xml:space="preserve">
<style type="text/css">
	.st0{fill:#FFFFFF;}
</style>
<path class="st0" d="M448,245.3V320h-64c-35.3,0-64,28.7-64,64v64H96c-17.7,0-32-14.3-32-32V96c0-17.7,14.3-32,32-32h192
	c17.7,0,32-14.3,32-32l0,0c0-17.7-14.3-32-32-32H96C43,0,0,43,0,96v320c0,53,43,96,96,96h255.7c25.5,0,49.9-10.1,67.9-28.1
	l64.4-64.4c18-18,28.1-42.4,28.1-67.9V245.3c0-17.7-14.3-32-32-32l0,0C462.3,213.3,448,227.7,448,245.3z"/>
<path class="st0" d="M379.6,38.3L112.9,304.9c-4,4-6.2,9.4-6.3,15.1v64c0,11.8,9.6,21.3,21.3,21.3h64c5.7,0,11.1-2.2,15.1-6.3
	L470.1,136c18.1-17.5,25.8-43.1,20.3-67.6c-9.5-35.5-46-56.5-81.5-46.9C397.9,24.4,387.8,30.2,379.6,38.3z"/>
</svg>
