<svg id="Outline" xmlns="http://www.w3.org/2000/svg" viewBox="0 0 512 384"><defs><style>.cls-1{fill:#fff;}</style></defs><path class="cls-1" d="M149.33,128H490.67a21.34,21.34,0,0,0,0-42.67H149.33a21.34,21.34,0,0,0,0,42.67Z" transform="translate(0 -64)"/><path class="cls-1" d="M490.67,234.67H149.33a21.33,21.33,0,0,0,0,42.66H490.67a21.33,21.33,0,0,0,0-42.66Z" transform="translate(0 -64)"/><path class="cls-1" d="M490.67,384H149.33a21.34,21.34,0,0,0,0,42.67H490.67a21.34,21.34,0,0,0,0-42.67Z" transform="translate(0 -64)"/><circle class="cls-1" cx="42.67" cy="42.67" r="42.67"/><circle class="cls-1" cx="42.67" cy="192" r="42.67"/><circle class="cls-1" cx="42.67" cy="341.33" r="42.67"/></svg>