<svg width="358" height="358" viewBox="0 0 358 358" fill="none" xmlns="http://www.w3.org/2000/svg">
<g clip-path="url(#clip0_28_16)">
<path d="M283.417 0H74.5833C33.4581 0 0 33.4581 0 74.5833V283.417C0 324.542 33.4581 358 74.5833 358H231.432C233.864 358 236.265 357.806 238.667 357.642V283.417C238.667 258.745 258.745 238.667 283.417 238.667H357.642C357.806 236.265 358 233.864 358 231.432V74.5833C358 33.4581 324.542 0 283.417 0ZM238.667 193.917H193.917V238.667C193.917 246.916 187.234 253.583 179 253.583C170.766 253.583 164.083 246.916 164.083 238.667V193.917H119.333C111.099 193.917 104.417 187.249 104.417 179C104.417 170.751 111.099 164.083 119.333 164.083H164.083V119.333C164.083 111.084 170.766 104.417 179 104.417C187.234 104.417 193.917 111.084 193.917 119.333V164.083H238.667C246.901 164.083 253.583 170.751 253.583 179C253.583 187.249 246.901 193.917 238.667 193.917ZM283.417 268.5H351.138C345.962 282.119 338.012 294.664 327.406 305.27L305.27 327.421C294.649 338.027 282.119 345.977 268.5 351.153V283.432C268.5 275.212 275.183 268.5 283.417 268.5Z" fill="white"/>
</g>
<defs>
<clipPath id="clip0_28_16">
<rect width="358" height="358" fill="white"/>
</clipPath>
</defs>
</svg>
